<svg width="32" height="32" viewBox="0 0 32 32" fill="none" xmlns="http://www.w3.org/2000/svg">
<g clip-path="url(#clip0_11_201)">
<path d="M20.1963 31.6107L5.53219 24.5013C5.08494 24.2845 4.89813 23.7461 5.11494 23.2989L15.3655 2.15563C15.5823 1.70838 16.1207 1.52157 16.5679 1.73838L31.232 8.84776C31.6793 9.06457 31.8661 9.60294 31.6493 10.0502L21.3987 31.1934C21.1819 31.6407 20.6435 31.8275 20.1963 31.6107Z" fill="#73973A"/>
<path d="M5.03738 23.4588L7.25444 18.8858C10.4934 20.4561 13.7754 16.4458 19.4616 19.2026C22.0317 20.4486 23.9431 21.9475 25.2663 23.2161L21.3212 31.3534C21.1472 31.7123 20.7151 31.8622 20.3563 31.6882L5.37219 24.4238C5.01331 24.2498 4.86338 23.8178 5.03738 23.4588Z" fill="#2B3B47"/>
<path d="M21.7808 13.8338C20.5977 16.2741 17.6604 17.2933 15.2201 16.1101C12.7798 14.927 11.7606 11.9897 12.9437 9.54938C14.1268 7.10907 17.0641 6.08988 19.5044 7.273C21.9448 8.45613 22.9639 11.3935 21.7808 13.8338Z" fill="white"/>
<path d="M18.0741 26.0457H1.77756C1.2805 26.0457 0.877563 25.6428 0.877563 25.1458V1.64869C0.877563 1.15163 1.2805 0.748688 1.77756 0.748688H18.0741C18.5712 0.748688 18.9741 1.15163 18.9741 1.64869V25.1458C18.9741 25.6428 18.5711 26.0457 18.0741 26.0457Z" fill="white"/>
<path d="M17.4665 25.5363H1.16993C0.672865 25.5363 0.269928 25.1334 0.269928 24.6363V1.13924C0.269928 0.64218 0.672865 0.239243 1.16993 0.239243H17.4665C17.9636 0.239243 18.3665 0.64218 18.3665 1.13924V24.6363C18.3665 25.1334 17.9636 25.5363 17.4665 25.5363Z" fill="#73973A"/>
<path d="M0.269928 24.8141V19.732C3.86955 19.732 5.07318 14.6917 11.3924 14.6917C14.2487 14.6917 16.6224 15.2066 18.3664 15.7709V24.8141C18.3664 25.2129 18.0431 25.5363 17.6442 25.5363H0.992178C0.593303 25.5363 0.269928 25.2129 0.269928 24.8141Z" fill="#2B3B47"/>
<path d="M11.1372 8.84894C11.1372 11.5609 8.93869 13.7594 6.22675 13.7594C3.51482 13.7594 1.31625 11.5609 1.31625 8.84894C1.31625 6.13701 3.51475 3.93851 6.22669 3.93851C8.93863 3.93851 11.1372 6.13694 11.1372 8.84894Z" fill="white"/>
</g>
<defs>
<clipPath id="clip0_11_201">
<rect width="32" height="32" fill="white"/>
</clipPath>
</defs>
</svg>
